PathFileType	4	(X/Y/Z)	 s01c0001.trc
DataRate	CameraRate	NumFrames	NumMarkers	Units	OrigDataRate	OrigDataStartFrame	OrigNumFrames
200	200	4	49	mm	200	751	2000
Frame#	Time	racr			lacr			c7			jug			rlel			rdr			llel			ldr			s2			lic			ric			lasi			rasi			rpsi			lpsi			rgt			lgt			rth1			rth2			rth3			rth4			rlfc			rmfc			rsh1			rsh2			rsh3			rsh4			rlmal			rmmal			rcal			rtoe			rmt5			rmt1			lth1			lth2			lth4			lth3			llfc			lmfc			lsh1			lsh2			lsh3			lsh4			llmal			lmmal			lcal			ltoe			lmt1			lmt5			
		X1	Y1	Z1	X2	Y2	Z2	X3	Y3	Z3	X4	Y4	Z4	X5	Y5	Z5	X6	Y6	Z6	X7	Y7	Z7	X8	Y8	Z8	X9	Y9	Z9	X10	Y10	Z10	X11	Y11	Z11	X12	Y12	Z12	X13	Y13	Z13	X14	Y14	Z14	X15	Y15	Z15	X16	Y16	Z16	X17	Y17	Z17	X18	Y18	Z18	X19	Y19	Z19	X20	Y20	Z20	X21	Y21	Z21	X22	Y22	Z22	X23	Y23	Z23	X24	Y24	Z24	X25	Y25	Z25	X26	Y26	Z26	X27	Y27	Z27	X28	Y28	Z28	X29	Y29	Z29	X30	Y30	Z30	X31	Y31	Z31	X32	Y32	Z32	X33	Y33	Z33	X34	Y34	Z34	X35	Y35	Z35	X36	Y36	Z36	X37	Y37	Z37	X38	Y38	Z38	X39	Y39	Z39	X40	Y40	Z40	X41	Y41	Z41	X42	Y42	Z42	X43	Y43	Z43	X44	Y44	Z44	X45	Y45	Z45	X46	Y46	Z46	X47	Y47	Z47	X48	Y48	Z48	X49	Y49	Z49	
751	3.7550	491.964310	1501.304691	-343.708878	301.906589	1483.645003	-684.295993	373.549516	1530.813131	-492.320809	504.526073	1459.946543	-562.335601	553.500911	1253.402887	-180.090436	713.511695	1057.424490	-70.435048	204.735679	1211.608504	-780.005587	210.713000	1004.740576	-950.131425	334.816062	1019.566323	-456.842440	362.658309	1090.110562	-674.342964	539.014636	1062.230609	-390.136521	414.756591	1026.090623	-676.945354	567.498393	1015.074090	-442.601907	377.150722	1050.321234	-419.300976	321.389716	1053.645700	-509.217971	510.884741	928.238320	-357.578387	331.681332	922.694048	-679.869094	532.755983	809.007732	-347.639415	538.854734	726.884830	-357.624115	532.866597	637.507440	-373.022211	576.730619	731.098907	-397.139612	503.131242	517.316175	-386.235489	443.045144	492.981134	-475.100757	489.423915	401.589208	-337.733277	484.482966	317.349347	-343.098479	469.110826	228.984628	-352.172278	509.241880	317.066735	-399.410679	447.188250	98.864147	-371.245104	447.521778	122.367445	-459.177057	393.784772	67.867144	-415.810475	651.912886	91.797796	-492.141103	581.407017	50.557916	-391.133247	561.328293	62.413964	-504.446110	318.205862	802.956276	-686.910052	336.612381	717.191635	-687.125846	386.448862	727.580844	-706.806172	353.079534	634.025857	-674.918850	361.455318	520.449776	-652.339978	389.611008	489.540692	-545.347699	303.614204	409.761793	-664.947028	302.405023	323.013992	-656.297975	303.824015	238.111542	-638.776808	365.172749	322.721814	-654.194782	317.242920	104.660921	-620.068637	382.514894	116.286943	-558.649598	304.857628	64.510005	-560.204351	543.350117	97.087242	-692.440935	498.345916	65.845441	-617.376997	426.172782	57.391575	-707.056390	
752	3.7600	491.959066	1501.289155	-343.704729	301.882541	1483.618223	-684.287458	373.550090	1530.782924	-492.319047	504.527608	1459.916802	-562.334641	553.489802	1253.408534	-180.096686	713.509162	1057.422589	-70.442397	204.701783	1211.595488	-779.966050	210.691109	1004.715150	-950.106656	334.829691	1019.563490	-456.850689	362.656660	1090.112674	-674.330159	539.057013	1062.209539	-390.156227	414.774364	1026.093354	-676.952789	567.510789	1015.075411	-442.605326	377.164222	1050.324745	-419.302575	321.404133	1053.648732	-509.212742	510.899555	928.240114	-357.579230	331.692723	922.685618	-679.874055	532.756360	809.007970	-347.639814	538.851332	726.873396	-357.608051	532.868354	637.493390	-373.008145	576.737829	731.101523	-397.122209	503.134160	517.310282	-386.237607	443.053230	492.971857	-475.094516	489.424133	401.589518	-337.722609	484.411679	317.388745	-343.036921	469.119331	228.984088	-352.168713	509.239400	317.062800	-399.415786	447.216853	98.856361	-371.235247	447.520818	122.367572	-459.177284	393.794938	67.864201	-415.814977	651.912994	91.798392	-492.138704	581.407015	50.557913	-391.133251	561.328926	62.413505	-504.443494	318.214307	802.954798	-686.919152	336.626465	717.200075	-687.136068	386.454170	727.579457	-706.812434	353.089583	634.025543	-674.919541	361.455310	520.449751	-652.339994	389.620821	489.526831	-545.338723	303.610663	409.766763	-664.952407	302.425732	322.995185	-656.301904	303.827319	238.111525	-638.776927	365.172344	322.722977	-654.193724	317.238320	104.666248	-620.070880	382.244968	116.439995	-558.640479	304.855994	64.520967	-560.199614	543.350123	97.087261	-692.440909	498.348425	65.846321	-617.371081	426.178049	57.373029	-707.061780	
753	3.7650	491.957049	1501.278203	-343.706463	301.879758	1483.598418	-684.285659	373.550808	1530.800852	-492.315054	504.499212	1459.936514	-562.317341	553.502450	1253.384666	-180.105135	713.508142	1057.418971	-70.437182	204.691706	1211.577054	-779.936012	210.659387	1004.690902	-950.077537	334.861064	1019.561251	-456.852659	362.680916	1090.105617	-674.332553	539.065472	1062.208873	-390.169748	414.776548	1026.093543	-676.954433	567.537318	1015.064651	-442.614889	377.175325	1050.327966	-419.305885	321.417623	1053.668826	-509.210403	510.915814	928.248872	-357.598495	331.695260	922.694561	-679.878458	532.771602	809.001100	-347.631304	538.873039	726.872925	-357.620630	532.868340	637.493387	-373.008147	576.742228	731.089330	-397.136395	503.149573	517.320975	-386.234682	443.042237	492.957008	-475.087574	489.410599	401.596723	-337.720139	484.475242	317.345334	-343.084326	469.108200	228.981654	-352.147193	509.246720	317.064577	-399.416135	447.207176	98.872339	-371.245910	447.522664	122.369481	-459.175862	393.784643	67.867210	-415.810476	651.911978	91.802217	-492.139315	581.414350	50.568139	-391.124421	561.328542	62.411671	-504.445038	318.221544	802.952030	-686.925950	336.632499	717.202976	-687.134486	386.456077	727.581679	-706.818403	353.091007	634.030229	-674.918903	361.449003	520.440997	-652.341292	389.609573	489.540882	-545.339112	303.614902	409.765527	-664.949504	302.407084	323.022160	-656.314965	303.825393	238.109322	-638.779700	365.168223	322.721307	-654.195350	317.230597	104.650590	-620.075500	382.500783	116.282285	-558.643596	304.849350	64.506714	-560.210684	543.355324	97.086668	-692.432873	498.351562	65.850048	-617.381057	426.158481	57.387945	-707.064002	
754	3.7700	491.953911	1501.262972	-343.705229	301.870964	1483.601879	-684.274738	373.541901	1530.787226	-492.271455	504.500335	1459.926005	-562.316760	553.499425	1253.366326	-180.083436	713.508450	1057.396975	-70.449426	204.672908	1211.545969	-779.905674	210.648773	1004.677261	-950.067310	334.858822	1019.573117	-456.859916	362.675751	1090.107715	-674.337770	539.077877	1062.210398	-390.162973	414.784372	1026.089349	-676.957957	567.547122	1015.069391	-442.626033	377.191353	1050.319996	-419.294441	321.441348	1053.663438	-509.212598	510.930131	928.242987	-357.613367	331.696239	922.695719	-679.877456	532.799337	809.001680	-347.647389	538.880056	726.869086	-357.615394	532.889923	637.502456	-373.012878	576.756971	731.101850	-397.142024	503.146580	517.327989	-386.230719	443.051310	492.967790	-475.082390	489.416450	401.597905	-337.706401	484.440314	317.406605	-343.054272	469.102218	228.981932	-352.164504	509.248996	317.074217	-399.424249	447.213180	98.881648	-371.239200	447.524311	122.369480	-459.170665	393.796461	67.853063	-415.799330	651.907568	91.806306	-492.139200	581.395936	50.568716	-391.128884	561.327656	62.410294	-504.448203	318.224095	802.950840	-686.931177	336.633701	717.183241	-687.139002	386.459680	727.580963	-706.820920	353.089645	634.025537	-674.919568	361.448747	520.441187	-652.341461	389.610288	489.533650	-545.347922	303.603826	409.764525	-664.940634	302.392396	323.018368	-656.316787	303.823528	238.109155	-638.780926	365.167851	322.718554	-654.196499	317.229829	104.665654	-620.069156	382.214044	116.442066	-558.622293	304.848034	64.517637	-560.205885	543.357407	97.079238	-692.439927	498.342838	65.847191	-617.377550	426.164365	57.393811	-707.065243	
